<svg id="visual" viewBox="0 0 900 600" width="900" height="600" xmlns="http://www.w3.org/2000/svg" xmlns:xlink="http://www.w3.org/1999/xlink" version="1.1"><g stroke-width="1" stroke-linejoin="bevel"><path d="M488 365L594 363L524 282Z" fill="#d3660d" stroke="#d3660d"></path><path d="M594 363L614 261L524 282Z" fill="#db6e10" stroke="#db6e10"></path><path d="M593 165L481 220L524 282Z" fill="#cb5e0b" stroke="#cb5e0b"></path><path d="M524 282L373 294L488 365Z" fill="#cb5e0b" stroke="#cb5e0b"></path><path d="M594 363L692 324L614 261Z" fill="#ab4003" stroke="#ab4003"></path><path d="M488 365L529 504L594 363Z" fill="#ab4003" stroke="#ab4003"></path><path d="M594 363L730 438L692 324Z" fill="#b34805" stroke="#b34805"></path><path d="M529 504L638 480L594 363Z" fill="#f98d1a" stroke="#f98d1a"></path><path d="M481 220L373 294L524 282Z" fill="#f98d1a" stroke="#f98d1a"></path><path d="M488 365L406 524L529 504Z" fill="#f98d1a" stroke="#f98d1a"></path><path d="M677 189L593 165L614 261Z" fill="#c35708" stroke="#c35708"></path><path d="M614 261L593 165L524 282Z" fill="#ea7d15" stroke="#ea7d15"></path><path d="M373 294L368 412L488 365Z" fill="#cb5e0b" stroke="#cb5e0b"></path><path d="M692 324L677 189L614 261Z" fill="#b34805" stroke="#b34805"></path><path d="M638 480L730 438L594 363Z" fill="#db6e10" stroke="#db6e10"></path><path d="M692 324L803 233L677 189Z" fill="#bb4f06" stroke="#bb4f06"></path><path d="M677 189L594 130L593 165Z" fill="#f98d1a" stroke="#f98d1a"></path><path d="M593 165L475 121L481 220Z" fill="#bb4f06" stroke="#bb4f06"></path><path d="M481 220L382 184L373 294Z" fill="#b34805" stroke="#b34805"></path><path d="M475 121L382 184L481 220Z" fill="#ea7d15" stroke="#ea7d15"></path><path d="M594 130L475 121L593 165Z" fill="#c35708" stroke="#c35708"></path><path d="M373 294L323 405L368 412Z" fill="#ea7d15" stroke="#ea7d15"></path><path d="M368 412L406 524L488 365Z" fill="#ab4003" stroke="#ab4003"></path><path d="M302 314L323 405L373 294Z" fill="#f28517" stroke="#f28517"></path><path d="M290 495L406 524L368 412Z" fill="#c35708" stroke="#c35708"></path><path d="M263 200L302 314L373 294Z" fill="#f98d1a" stroke="#f98d1a"></path><path d="M667 600L721 510L638 480Z" fill="#b34805" stroke="#b34805"></path><path d="M638 480L721 510L730 438Z" fill="#f98d1a" stroke="#f98d1a"></path><path d="M562 600L638 480L529 504Z" fill="#e27512" stroke="#e27512"></path><path d="M460 600L562 600L529 504Z" fill="#d3660d" stroke="#d3660d"></path><path d="M406 524L460 600L529 504Z" fill="#f28517" stroke="#f28517"></path><path d="M475 121L402 99L382 184Z" fill="#f98d1a" stroke="#f98d1a"></path><path d="M382 184L263 200L373 294Z" fill="#e27512" stroke="#e27512"></path><path d="M411 0L402 99L475 121Z" fill="#c35708" stroke="#c35708"></path><path d="M765 532L815 401L730 438Z" fill="#ea7d15" stroke="#ea7d15"></path><path d="M730 438L815 401L692 324Z" fill="#c35708" stroke="#c35708"></path><path d="M832 313L803 233L692 324Z" fill="#f98d1a" stroke="#f98d1a"></path><path d="M677 189L723 63L594 130Z" fill="#f28517" stroke="#f28517"></path><path d="M562 600L667 600L638 480Z" fill="#ab4003" stroke="#ab4003"></path><path d="M721 510L765 532L730 438Z" fill="#f28517" stroke="#f28517"></path><path d="M815 401L832 313L692 324Z" fill="#c35708" stroke="#c35708"></path><path d="M201 405L290 495L323 405Z" fill="#d3660d" stroke="#d3660d"></path><path d="M323 405L290 495L368 412Z" fill="#e27512" stroke="#e27512"></path><path d="M406 524L387 600L460 600Z" fill="#b34805" stroke="#b34805"></path><path d="M667 600L765 532L721 510Z" fill="#c35708" stroke="#c35708"></path><path d="M290 495L387 600L406 524Z" fill="#d3660d" stroke="#d3660d"></path><path d="M304 134L263 200L382 184Z" fill="#f98d1a" stroke="#f98d1a"></path><path d="M302 314L201 405L323 405Z" fill="#b34805" stroke="#b34805"></path><path d="M402 99L304 134L382 184Z" fill="#e27512" stroke="#e27512"></path><path d="M793 79L723 63L677 189Z" fill="#ea7d15" stroke="#ea7d15"></path><path d="M594 130L520 0L475 121Z" fill="#db6e10" stroke="#db6e10"></path><path d="M637 0L520 0L594 130Z" fill="#e27512" stroke="#e27512"></path><path d="M402 99L290 0L304 134Z" fill="#ab4003" stroke="#ab4003"></path><path d="M172 305L201 405L302 314Z" fill="#f28517" stroke="#f28517"></path><path d="M290 495L272 600L387 600Z" fill="#bb4f06" stroke="#bb4f06"></path><path d="M723 63L637 0L594 130Z" fill="#c35708" stroke="#c35708"></path><path d="M304 134L224 173L263 200Z" fill="#c35708" stroke="#c35708"></path><path d="M263 200L172 305L302 314Z" fill="#f28517" stroke="#f28517"></path><path d="M223 110L224 173L304 134Z" fill="#bb4f06" stroke="#bb4f06"></path><path d="M900 389L900 339L815 401Z" fill="#bb4f06" stroke="#bb4f06"></path><path d="M815 401L900 339L832 313Z" fill="#f28517" stroke="#f28517"></path><path d="M832 313L900 195L803 233Z" fill="#d3660d" stroke="#d3660d"></path><path d="M803 233L793 79L677 189Z" fill="#b34805" stroke="#b34805"></path><path d="M900 195L793 79L803 233Z" fill="#e27512" stroke="#e27512"></path><path d="M723 63L671 0L637 0Z" fill="#f98d1a" stroke="#f98d1a"></path><path d="M520 0L411 0L475 121Z" fill="#b34805" stroke="#b34805"></path><path d="M793 0L671 0L723 63Z" fill="#d3660d" stroke="#d3660d"></path><path d="M900 518L900 389L815 401Z" fill="#ab4003" stroke="#ab4003"></path><path d="M667 600L798 600L765 532Z" fill="#db6e10" stroke="#db6e10"></path><path d="M765 532L900 518L815 401Z" fill="#ea7d15" stroke="#ea7d15"></path><path d="M224 173L172 305L263 200Z" fill="#bb4f06" stroke="#bb4f06"></path><path d="M186 513L272 600L290 495Z" fill="#b34805" stroke="#b34805"></path><path d="M900 339L900 195L832 313Z" fill="#cb5e0b" stroke="#cb5e0b"></path><path d="M290 0L223 110L304 134Z" fill="#e27512" stroke="#e27512"></path><path d="M116 176L136 337L172 305Z" fill="#e27512" stroke="#e27512"></path><path d="M89 481L186 513L201 405Z" fill="#f98d1a" stroke="#f98d1a"></path><path d="M201 405L186 513L290 495Z" fill="#b34805" stroke="#b34805"></path><path d="M798 600L900 518L765 532Z" fill="#ea7d15" stroke="#ea7d15"></path><path d="M116 176L172 305L224 173Z" fill="#e27512" stroke="#e27512"></path><path d="M172 305L136 337L201 405Z" fill="#f28517" stroke="#f28517"></path><path d="M411 0L290 0L402 99Z" fill="#c35708" stroke="#c35708"></path><path d="M900 0L793 0L793 79Z" fill="#f28517" stroke="#f28517"></path><path d="M793 79L793 0L723 63Z" fill="#e27512" stroke="#e27512"></path><path d="M128 600L190 600L186 513Z" fill="#bb4f06" stroke="#bb4f06"></path><path d="M186 513L190 600L272 600Z" fill="#f98d1a" stroke="#f98d1a"></path><path d="M900 195L900 83L793 79Z" fill="#bb4f06" stroke="#bb4f06"></path><path d="M798 600L900 600L900 518Z" fill="#e27512" stroke="#e27512"></path><path d="M223 110L116 176L224 173Z" fill="#e27512" stroke="#e27512"></path><path d="M128 71L116 176L223 110Z" fill="#ab4003" stroke="#ab4003"></path><path d="M136 337L89 481L201 405Z" fill="#f28517" stroke="#f28517"></path><path d="M62 361L89 481L136 337Z" fill="#d3660d" stroke="#d3660d"></path><path d="M0 295L62 361L136 337Z" fill="#cb5e0b" stroke="#cb5e0b"></path><path d="M89 481L128 600L186 513Z" fill="#f28517" stroke="#f28517"></path><path d="M290 0L186 0L223 110Z" fill="#bb4f06" stroke="#bb4f06"></path><path d="M186 0L128 71L223 110Z" fill="#cb5e0b" stroke="#cb5e0b"></path><path d="M0 295L0 370L62 361Z" fill="#d3660d" stroke="#d3660d"></path><path d="M900 83L900 0L793 79Z" fill="#b34805" stroke="#b34805"></path><path d="M62 361L0 464L89 481Z" fill="#f28517" stroke="#f28517"></path><path d="M89 481L0 600L128 600Z" fill="#cb5e0b" stroke="#cb5e0b"></path><path d="M0 295L136 337L116 176Z" fill="#f98d1a" stroke="#f98d1a"></path><path d="M0 186L0 295L116 176Z" fill="#ab4003" stroke="#ab4003"></path><path d="M0 370L0 464L62 361Z" fill="#db6e10" stroke="#db6e10"></path><path d="M0 123L116 176L128 71Z" fill="#ab4003" stroke="#ab4003"></path><path d="M0 123L0 186L116 176Z" fill="#ab4003" stroke="#ab4003"></path><path d="M61 0L0 123L128 71Z" fill="#f98d1a" stroke="#f98d1a"></path><path d="M186 0L61 0L128 71Z" fill="#c35708" stroke="#c35708"></path><path d="M0 464L0 600L89 481Z" fill="#c35708" stroke="#c35708"></path><path d="M61 0L0 0L0 123Z" fill="#ea7d15" stroke="#ea7d15"></path></g></svg>