<svg id="visual" viewBox="0 0 900 600" width="900" height="600" xmlns="http://www.w3.org/2000/svg" xmlns:xlink="http://www.w3.org/1999/xlink" version="1.1"><rect width="900" height="600" fill="#ee730c"></rect><g><g transform="translate(545 81)"><path d="M0 -80.1L69.4 -40.1L69.4 40.1L0 80.1L-69.4 40.1L-69.4 -40.1Z" fill="#f49e2a"></path></g><g transform="translate(635 485)"><path d="M0 -48L41.6 -24L41.6 24L0 48L-41.6 24L-41.6 -24Z" fill="#f49e2a"></path></g><g transform="translate(11 180)"><path d="M0 -68L58.9 -34L58.9 34L0 68L-58.9 34L-58.9 -34Z" fill="#f49e2a"></path></g><g transform="translate(265 130)"><path d="M0 -62L53.7 -31L53.7 31L0 62L-53.7 31L-53.7 -31Z" fill="#f49e2a"></path></g><g transform="translate(164 451)"><path d="M0 -58L50.2 -29L50.2 29L0 58L-50.2 29L-50.2 -29Z" fill="#f49e2a"></path></g><g transform="translate(431 470)"><path d="M0 -44L38.1 -22L38.1 22L0 44L-38.1 22L-38.1 -22Z" fill="#f49e2a"></path></g><g transform="translate(860 347)"><path d="M0 -78L67.5 -39L67.5 39L0 78L-67.5 39L-67.5 -39Z" fill="#f49e2a"></path></g><g transform="translate(752 24)"><path d="M0 -69L59.8 -34.5L59.8 34.5L0 69L-59.8 34.5L-59.8 -34.5Z" fill="#f49e2a"></path></g><g transform="translate(678 243)"><path d="M0 -60L52 -30L52 30L0 60L-52 30L-52 -30Z" fill="#f49e2a"></path></g><g transform="translate(246 298)"><path d="M0 -68L58.9 -34L58.9 34L0 68L-58.9 34L-58.9 -34Z" fill="#f49e2a"></path></g><g transform="translate(894 110)"><path d="M0 -79L68.4 -39.5L68.4 39.5L0 79L-68.4 39.5L-68.4 -39.5Z" fill="#f49e2a"></path></g><g transform="translate(782 549)"><path d="M0 -70L60.6 -35L60.6 35L0 70L-60.6 35L-60.6 -35Z" fill="#f49e2a"></path></g><g transform="translate(297 593)"><path d="M0 -58L50.2 -29L50.2 29L0 58L-50.2 29L-50.2 -29Z" fill="#f49e2a"></path></g><g transform="translate(450 230)"><path d="M0 -77L66.7 -38.5L66.7 38.5L0 77L-66.7 38.5L-66.7 -38.5Z" fill="#f49e2a"></path></g><g transform="translate(67 599)"><path d="M0 -73L63.2 -36.5L63.2 36.5L0 73L-63.2 36.5L-63.2 -36.5Z" fill="#f49e2a"></path></g><g transform="translate(110 10)"><path d="M0 -63L54.6 -31.5L54.6 31.5L0 63L-54.6 31.5L-54.6 -31.5Z" fill="#f49e2a"></path></g><g transform="translate(39 344)"><path d="M0 -67L58 -33.5L58 33.5L0 67L-58 33.5L-58 -33.5Z" fill="#f49e2a"></path></g></g></svg>